<?xml version="1.0" encoding="utf-8"?>
<!-- Svg Vector Icons : http://www.onlinewebfonts.com/icon -->
<!DOCTYPE svg PUBLIC "-//W3C//DTD SVG 1.1//EN" "http://www.w3.org/Graphics/SVG/1.1/DTD/svg11.dtd">
<svg version="1.1" xmlns="http://www.w3.org/2000/svg" xmlns:xlink="http://www.w3.org/1999/xlink" x="0px" y="0px" viewBox="0 0 1000 1000" enable-background="new 0 0 1000 1000" xml:space="preserve">
<metadata> Svg Vector Icons : http://www.onlinewebfonts.com/icon </metadata>
<g><g transform="translate(0.000000,511.000000) scale(0.100000,-0.100000)"><path d="M2306.3,4993.2c-640.2-112.1-1076.5-768.6-897-1351.7c126.4-405.7,611.6-740.1,1013.3-697.3l128.4,14.3l-12.2-69.3c-46.9-283.4-85.6-434.2-181.4-719.7c-61.2-179.4-126.4-389.4-142.7-468.9c-48.9-222.2-61.2-772.7-22.4-1013.3c36.7-228.3,122.3-513.7,177.4-589.2c101.9-144.8,399.6-256.9,615.7-232.4C3193.1-111.8,3280.8-58.8,3348,90c53,114.2,48.9,187.6-22.4,362.9c-185.5,464.8-187.6,860.3-8.2,1329.2c142.7,369,232.4,787,263,1229.4l16.3,207.9h97.9h97.9l10.2-85.6c6.1-48.9,10.2-791,6.1-1653.4l-4.1-1563.7h169.2h167.2v1651.4v1653.4l179.4-6.1l177.4-6.1l6.1-1737l4.1-1739h163.1h163.1v1743.1v1743.1h183.5h183.5V1476.4V-266.7h163.1h163.1l4.1,1739l6.1,1737l179.4,6.1l177.4,6.1V1568.1V-83.3h169.2h167.2l-4.1,1543.3c-4.1,850.2,0,1594.3,6.1,1653.4l10.2,106h87.7h87.7l12.2-238.5c22.5-411.8,108.1-799.2,261-1204.9c179.4-473,177.4-880.7-10.2-1325.2c-63.2-150.9-67.3-281.3-12.2-389.4c138.6-271.2,691.1-263,943.9,16.3c77.5,87.7,124.4,214.1,189.6,511.7c28.6,132.5,36.7,261,38.8,540.3c0,424.1-38.8,644.3-175.3,1007.1c-79.5,214.1-167.2,546.4-191.7,721.7l-12.2,97.9l128.4-14.3c152.9-16.3,336.4,24.5,493.4,110.1c161,87.7,389.4,314,462.8,462.8c303.8,617.7-167.2,1386.3-909.3,1486.2c-120.3,16.3-354.7-26.5-473-87.7c-360.9-183.5-654.4-660.6-709.5-1153.9c-22.4-218.2-20.4-214.1-122.3-214.1H6243l-12.2,91.7c-8.2,48.9-12.2,157-8.2,238.5c2.1,81.5,4.1,201.8,2.1,267.1l-4.1,116.2h-163.1h-163.1l-4.1-350.7l-6.1-352.7h-173.3h-173.3l-6.1,607.5l-4.1,605.5h-163.1h-163.1l-4.1-605.5l-6.1-607.5h-173.3h-173.3l-6.1,607.5l-4.1,605.5h-163.1h-163.1l-4.1-605.5l-6.1-607.5h-173.3h-173.3l-6.1,352.7l-4.1,350.7H3978h-163.1l-4.1-106c-2-59.1-2-171.2,2-246.7c4.1-77.5,0-189.6-8.2-250.8l-14.3-112.1l-104,6.1l-106,6.1l-26.5,183.5c-93.8,678.9-475,1174.3-964.3,1253.8C2444.9,5015.6,2436.7,5015.6,2306.3,4993.2z M2728.3,4614c330.3-157,515.8-656.5,515.8-1392.4c0-464.9-63.2-813.5-234.5-1296.6c-120.3-340.5-152.9-509.7-152.9-799.2c0-273.2,46.9-532.1,130.5-746.2c30.6-75.4,48.9-146.8,40.8-159c-18.3-32.6-271.2-12.3-330.3,24.5c-93.8,59.1-185.5,417.9-201.8,793.1c-14.3,309.9,30.6,589.2,138.7,897c216.1,607.5,289.5,1066.2,244.6,1549.4c-26.5,295.6-97.9,579-177.4,699.3c-28.5,42.8-81.5,91.7-122.3,110.1c-61.2,30.6-83.6,30.6-167.2,10.2c-191.7-51-371.1-214.1-371.1-340.5c0-97.9,116.2-250.8,238.5-314c48.9-24.5,169.2-30.6,169.2-8.2c0,8.2-53,69.3-116.2,134.5c-112.1,114.2-116.2,120.3-79.5,148.8c22.4,16.3,69.3,28.5,106,28.5c36.7,0,79.5,4.1,95.8,12.2c22.4,8.1,32.6-22.4,42.8-148.8c10.2-99.9,8.1-161.1-6.1-165.1c-12.2-4.1,2-59.1,32.6-126.4c28.5-67.3,46.9-134.6,40.8-150.9c-18.4-46.9-167.2-114.2-252.8-114.2c-183.5,0-456.7,214.1-570.8,444.4c-81.5,165.2-79.5,356.8,4.1,509.7c148.8,273.2,548.4,495.4,815.5,456.7C2595.8,4667,2669.1,4640.5,2728.3,4614z M7619.2,4664.9c144.8-26.5,360.9-136.6,485.2-246.7c205.9-179.4,273.2-473,165.1-705.4c-106-226.3-387.3-452.6-566.8-452.6c-85.6,0-195.7,44.9-244.6,97.9c-28.6,30.6-24.5,46.9,26.5,161.1c44.9,95.8,67.3,124.4,89.7,116.2c63.2-24.5,173.3,14.3,263,93.8c99.9,87.7,148.8,193.7,128.4,277.3c-32.6,124.4-250.8,285.4-415.9,307.8c-95.8,12.2-199.8-53-263-167.2c-114.2-203.9-179.4-632-163.1-1049.9c14.3-350.7,69.3-619.8,207.9-1029.6c157-458.7,179.4-577,179.4-927.6c2.1-420-83.6-799.2-195.7-884.8c-59.1-44.9-307.9-73.4-340.5-40.8c-10.2,10.2,6.1,73.4,32.6,140.7c126.4,301.7,179.4,727.8,132.5,1052c-14.3,97.9-81.6,334.3-157,558.6c-177.4,528-218.1,764.5-216.1,1253.8c4.1,424.1,32.6,646.3,122.3,890.9c114.2,307.8,277.3,491.3,489.3,548.4C7500.9,4691.4,7478.5,4691.4,7619.2,4664.9z"/><path d="M3335.8-281C3223.7-303.4,3036.1-383,2924-454.3c-130.5-83.6-330.3-283.4-383.3-381.2l-28.5-57.1h-240.6c-299.7,0-452.6-34.6-740.1-173.3c-187.6-91.7-234.5-124.3-397.6-289.5c-210-212-305.8-373.1-383.3-644.3c-163.1-562.7-26.5-1123.3,369-1525c283.4-285.4,662.6-458.7,1049.9-477.1c93.8-4.1,99.9-8.1,185.5-126.4c285.4-401.6,762.5-650.3,1245.7-650.3c334.4,0,634.1,87.7,895,263l138.6,91.7l114.2-24.5c140.7-28.6,428.1-30.6,554.5-2.1c87.7,22.4,93.8,20.4,230.4-71.4c513.8-340.5,1149.8-358.8,1679.9-44.9c142.7,85.6,385.3,311.9,477.1,444.5l67.3,97.9l183.5,24.5c369,48.9,703.4,222.2,962.3,497.4c163.1,173.3,256.9,322.1,324.2,517.9c97.9,281.3,114.2,552.5,53,852.2c-114.2,556.6-493.4,976.5-1045.9,1156c-157,51-234.5,63.2-448.5,73.4l-256.9,10.2l-63.2,95.8c-142.7,220.2-438.3,430.2-709.5,499.5c-342.5,89.7-778.8-26.5-1056.1-277.3c-122.3-114.2-106-112.1-336.4-46.9c-179.4,48.9-513.8,48.9-693.2,0c-230.4-65.3-214.1-67.3-336.4,46.9c-128.4,116.2-346.6,230.4-530.1,277.3C3694.6-268.8,3433.7-258.6,3335.8-281z M3690.6-613.3c222.2-36.7,397.5-148.8,542.3-346.6c93.8-126.4,154.9-142.7,289.5-75.4c181.4,91.7,311.9,124.3,495.4,124.3c181.5,0,250.8-16.3,473-112.1c171.3-75.4,218.1-65.2,311.9,63.2c199.8,273.2,485.2,395.5,799.2,346.6c295.6-46.9,499.5-197.8,640.1-473c51-99.9,93.8-161.1,122.3-169.2c24.5-8.1,130.5-2.1,234.5,12.2c544.4,73.4,1033.6-199.8,1280.4-715.6c252.8-528,51-1196.7-464.8-1533.1c-167.2-108-348.6-161-593.3-173.3c-114.2-6.1-222.2-22.4-246.7-36.7c-22.4-14.3-77.5-87.7-120.3-163.1c-218.1-371-615.7-589.2-1070.3-585.1c-297.6,2.1-560.6,104-776.7,299.7c-101.9,91.7-152.9,101.9-285.4,57.1c-148.8-51-489.3-51-583.1,0c-114.2,61.2-189.6,46.9-332.3-69.3c-387.4-309.9-858.3-371.1-1308.9-165.2c-226.3,104-454.6,326.2-558.6,544.3c-42.8,89.7-87.7,108-324.2,120.3c-112.1,6.1-252.8,24.4-314,40.8c-271.2,73.4-507.6,246.7-668.7,485.2c-340.5,507.6-281.3,1127.4,146.8,1555.5c157,159,354.7,275.2,552.5,326.2c140.7,36.7,399.6,40.8,558.6,6.1c179.4-36.7,212-20.4,303.8,163.1c154.9,303.8,377.2,450.6,746.2,491.3C3551.9-595,3619.2-603.1,3690.6-613.3z"/></g></g>
</svg>